<svg id="Layer_1" data-name="Layer 1" xmlns="http://www.w3.org/2000/svg" xmlns:xlink="http://www.w3.org/1999/xlink" viewBox="0 0 433.91 232.36">
    <defs>
        <style>
            .cls-1,
            .cls-2,
            .cls-3,
            .cls-4 {
                fill:none;
                stroke-miterlimit:10;
                stroke-width:10px;
            }
            .cls-1 {
                stroke:url(#linear-gradient);
            }
            .cls-2 {
                stroke:url(#linear-gradient-2);
            }
            .cls-3 {
                stroke:url(#linear-gradient-3);
            }
            .cls-4 {
                stroke:url(#linear-gradient-4);
            }
            .cls-5 {
                fill:#001794;
            }
            .cls-6 {
                fill:#8cd4ff;
            }
        </style>
        <linearGradient
            id="linear-gradient"
            x1="56.52" 
            y1="134.19" 
            x2="391.85" 
            y2="134.19" 
            gradientUnits="userSpaceOnUse"
        >
            <stop 
                offset="0" 
                stop-color="#001794"/>
            <stop 
                offset="1" 
                stop-color="#8cd4ff"/>
        </linearGradient>
        <linearGradient 
            id="linear-gradient-2" 
            x1="61.56" 
            y1="106.93" 
            x2="384.13" 
            y2="106.93" 
            xlink:href="#linear-gradient"
        />
        <linearGradient 
            id="linear-gradient-3" 
            x1="190.19" 
            y1="231.46" 
            x2="596.43" 
            y2="231.46" 
            xlink:href="#linear-gradient"
        />
        <linearGradient 
            id="linear-gradient-4" 
            x1="201.91" 
            y1="244.43" 
            x2="601.94" 
            y2="244.43" 
            xlink:href="#linear-gradient"
        />
    </defs>
    <polyline class="cls-1" points="56.52 53.5 147.04 221.13 226.03 61.48 305.28 221.13 391.85 47.25"/>
    <polyline class="cls-2" points="61.56 28.06 147.25 186.75 226.24 27.11 305.5 186.75 384.13 28.82"/>
    <path class="cls-3" d="M190.19,265c68-65,112.47-68.32,147.78-66.8,87,3.75,127.34,58.07,205.22,49.8,20-2.12,40-7.81,53.24-19" transform="translate(-179.05 -192.93)"/>
    <path class="cls-4" d="M201.91,275.63c36.11-43,99.85-65.68,135-62,86.14,9,116.42,55.58,207.38,50,18.89-1.16,37.5-7.19,57.65-19.2" transform="translate(-179.05 -192.93)"/>
    <polygon class="cls-5" points="15.61 79.06 9.89 77.6 5.45 81.48 5.07 75.59 0 72.56 5.49 70.39 6.8 64.63 10.57 69.17 16.45 68.65 13.29 73.63 15.61 79.06"/>
    <polygon class="cls-5" points="19.74 74.29 24.31 78.03 29.98 76.39 27.83 81.89 31.15 86.78 25.25 86.43 21.63 91.09 20.13 85.38 14.58 83.38 19.55 80.19 19.74 74.29"/>
    <polygon class="cls-6" points="422.66 42.21 418.4 38.12 412.62 39.3 415.19 33.99 412.27 28.86 418.12 29.67 422.1 25.31 423.14 31.12 428.52 33.55 423.31 36.34 422.66 42.21"/>
    <polygon class="cls-6" points="391.65 31.87 385.99 30.22 381.41 33.95 381.23 28.05 376.27 24.86 381.82 22.86 383.33 17.15 386.94 21.82 392.84 21.49 389.52 26.37 391.65 31.87"/>
    <polygon class="cls-6" points="418.42 43.83 424.11 45.4 428.63 41.6 428.9 47.5 433.91 50.62 428.38 52.7 426.96 58.43 423.27 53.81 417.38 54.23 420.64 49.3 418.42 43.83"/>
</svg>